# xmcd CD database file
#
# Track frame offsets:
#	150
#	21726
#	28439
#	36913
#	51050
#	67611
#	83852
#	101828
#	111797
#	125813
#	139897
#	146361
#
# Disc length: 2313 seconds
#
# Revision: 0
# Processed by: cddbd v1.4PL0 Copyright (c) Steve Scherf et al.
# Submitted via: CDex 1.50beta10
#
DISCID=b109070c
DTITLE=Georgr Shearing - Out Of This World
DYEAR=2001
DGENRE=Jazz
TTITLE0=Out Of This World
TTITLE1=Wendy (Chanson)
TTITLE2=Hey Jude
TTITLE3=Funny Sunny
TTITLE4=Serenade In Blue
TTITLE5=Here, There and Everywhere
TTITLE6=Such A Fool
TTITLE7=Out Of Nowhere
TTITLE8=You're My Everything
TTITLE9=The Road To Nowhere
TTITLE10=Let It Snow
TTITLE11=How Do You Say 'Auf Wiedersehn'?
EXTD=YEAR: 2001
EXTT0=
EXTT1=
EXTT2=
EXTT3=
EXTT4=
EXTT5=
EXTT6=
EXTT7=
EXTT8=
EXTT9=
EXTT10=
EXTT11=
PLAYORDER=
